<svg width="60" height="60" viewBox="0 0 60 60" fill="none" xmlns="http://www.w3.org/2000/svg">
<rect width="60" height="60" rx="20" fill="url(#paint0_linear_252_186)"/>
<rect width="60" height="60" rx="20" fill="url(#paint1_linear_252_186)"/>
<path d="M30.0045 19.7445C24.3291 19.7445 19.7513 24.3233 19.7513 30C19.7513 35.6767 24.3291 40.2555 30.0045 40.2555C35.6799 40.2555 40.2577 35.6767 40.2577 30C40.2577 24.3233 35.6799 19.7445 30.0045 19.7445ZM30.0045 36.6674C26.3369 36.6674 23.3385 33.6773 23.3385 30C23.3385 26.3227 26.3279 23.3326 30.0045 23.3326C33.681 23.3326 36.6704 26.3227 36.6704 30C36.6704 33.6773 33.6721 36.6674 30.0045 36.6674ZM43.0686 19.325C43.0686 20.6549 41.9978 21.7171 40.6771 21.7171C39.3475 21.7171 38.2856 20.646 38.2856 19.325C38.2856 18.004 39.3564 16.9329 40.6771 16.9329C41.9978 16.9329 43.0686 18.004 43.0686 19.325ZM49.8595 21.7528C49.7078 18.5485 48.976 15.7101 46.6291 13.3716C44.2911 11.0331 41.4534 10.3012 38.2499 10.1406C34.9481 9.95314 25.0519 9.95314 21.7501 10.1406C18.5555 10.2923 15.7178 11.0242 13.3709 13.3627C11.024 15.7012 10.3012 18.5396 10.1405 21.7438C9.95315 25.0463 9.95315 34.9448 10.1405 38.2472C10.2922 41.4515 11.024 44.2899 13.3709 46.6284C15.7178 48.9669 18.5466 49.6988 21.7501 49.8594C25.0519 50.0469 34.9481 50.0469 38.2499 49.8594C41.4534 49.7077 44.2911 48.9758 46.6291 46.6284C48.9671 44.2899 49.6988 41.4515 49.8595 38.2472C50.0469 34.9448 50.0469 25.0552 49.8595 21.7528ZM45.594 41.7907C44.8979 43.5401 43.5505 44.8879 41.7925 45.593C39.1601 46.6373 32.9136 46.3963 30.0045 46.3963C27.0954 46.3963 20.8399 46.6284 18.2164 45.593C16.4674 44.8968 15.1199 43.549 14.4149 41.7907C13.3709 39.1576 13.6118 32.9097 13.6118 30C13.6118 27.0903 13.3798 20.8334 14.4149 18.2093C15.111 16.4599 16.4584 15.1121 18.2164 14.407C20.8489 13.3627 27.0954 13.6037 30.0045 13.6037C32.9136 13.6037 39.169 13.3716 41.7925 14.407C43.5416 15.1032 44.889 16.451 45.594 18.2093C46.638 20.8424 46.3971 27.0903 46.3971 30C46.3971 32.9097 46.638 39.1666 45.594 41.7907Z" fill="white"/>
<defs>
<linearGradient id="paint0_linear_252_186" x1="3" y1="47.5" x2="23" y2="33.5" gradientUnits="userSpaceOnUse">
<stop stop-color="#F38334"/>
<stop offset="1" stop-color="#DA2E7D" stop-opacity="0.51"/>
</linearGradient>
<linearGradient id="paint1_linear_252_186" x1="30" y1="33" x2="56" y2="8.5" gradientUnits="userSpaceOnUse">
<stop offset="0.0964787" stop-color="#DA2E7D" stop-opacity="0"/>
<stop offset="1" stop-color="#6B54C6"/>
</linearGradient>
</defs>
</svg>
