<svg width="60" height="60" viewBox="0 0 60 60" fill="none" xmlns="http://www.w3.org/2000/svg">
<rect width="60" height="60" rx="20" fill="white"/>
<path d="M30 10C18.9543 10 10 18.9543 10 30C10 41.0457 18.9543 50 30 50C41.0457 50 50 41.0457 50 30C50 18.9543 41.0457 10 30 10ZM39.2703 23.6016C38.9694 26.7641 37.667 34.4385 37.0042 37.9806C36.7239 39.4794 36.1718 39.9819 35.6374 40.031C34.4761 40.138 33.594 39.2635 32.4691 38.5261C30.7089 37.3723 29.7144 36.6539 28.0057 35.528C26.0311 34.2268 27.3112 33.5119 28.4365 32.3425C28.731 32.0366 33.8484 27.382 33.9474 26.9598C33.9598 26.9069 33.9716 26.7098 33.8544 26.6062C33.7371 26.5027 33.5648 26.5377 33.4402 26.5659C33.2637 26.606 30.4517 28.4646 25.0041 32.1419C24.206 32.6899 23.483 32.957 22.8352 32.943C22.1211 32.9276 20.7475 32.5393 19.7263 32.2073C18.4738 31.8002 17.4783 31.5849 17.565 30.8935C17.6102 30.5333 18.1061 30.165 19.0529 29.7886C24.8833 27.2484 28.7712 25.5737 30.7165 24.7644C36.2706 22.4542 37.4248 22.0529 38.177 22.0395C38.3425 22.0368 38.7124 22.0777 38.952 22.2722C39.1114 22.4107 39.213 22.604 39.2367 22.8138C39.2773 23.0743 39.2886 23.3386 39.2703 23.6016Z" fill="#248CD9"/>
</svg>
