<svg width="60" height="60" viewBox="0 0 60 60" fill="none" xmlns="http://www.w3.org/2000/svg">
<rect width="60" height="60" rx="20" fill="white"/>
<path d="M12.8117 12.8117C10 15.6233 10 20.1492 10 29.2V30.8C10 39.8508 10 44.3767 12.8117 47.1883C15.6233 50 20.1492 50 29.2 50H30.8C39.8508 50 44.3767 50 47.1883 47.1883C50 44.3767 50 39.8508 50 30.8V29.2C50 20.1492 50 15.6233 47.1883 12.8117C44.3767 10 39.8508 10 30.8 10H29.2C20.1492 10 15.6233 10 12.8117 12.8117ZM16.75 22.1667H21.3167C21.4667 29.8 24.8333 33.0333 27.5 33.7V22.1667H31.8V28.75C34.4333 28.4667 37.2 25.4667 38.1333 22.1667H42.4333C42.0815 23.8781 41.3804 25.4985 40.3738 26.9267C39.3672 28.3548 38.0769 29.5599 36.5833 30.4667C38.2509 31.2946 39.7238 32.467 40.9046 33.9063C42.0854 35.3458 42.9473 37.0195 43.4333 38.8167H38.7C38.2638 37.2555 37.3762 35.858 36.1487 34.7995C34.9212 33.741 33.4083 33.0686 31.8 32.8667V38.8167H31.2833C22.1667 38.8167 16.9667 32.5667 16.75 22.1667Z" fill="#0077FF"/>
</svg>
