<svg width="60" height="60" viewBox="0 0 60 60" fill="none" xmlns="http://www.w3.org/2000/svg">
<rect width="60" height="60" rx="20" fill="white"/>
<path d="M53.9552 16.2586C53.3802 13.7951 51.6859 11.8549 49.5347 11.1965C45.6354 10 30 10 30 10C30 10 14.3646 10 10.4653 11.1965C8.31411 11.855 6.61984 13.7951 6.0448 16.2586C5 20.724 5 30.0404 5 30.0404C5 30.0404 5 39.3569 6.0448 43.8222C6.61984 46.2857 8.31411 48.1451 10.4653 48.8035C14.3646 50 30 50 30 50C30 50 45.6354 50 49.5347 48.8035C51.6859 48.1451 53.3802 46.2857 53.9552 43.8222C55 39.3569 55 30.0404 55 30.0404C55 30.0404 55 20.724 53.9552 16.2586ZM24.8863 38.4991V21.5818L37.9545 30.0406L24.8863 38.4991Z" fill="#FA0315"/>
</svg>
